# xmcd
#
# Track frame offsets: 
#        150
#        25082
#        45895
#        67804
#        83187
#        104077
#        119882
#        145540
#        167040
#        193173
#        209284
#        222293
#
# Disc length: 3222 seconds
#
# Revision: 34
# Processed by: cddbd v1.5.2PL0 Copyright (c) Steve Scherf et al.
# Submitted via: ExactAudioCopyFreeDBPlugin 1.0
#
DISCID=aa0c940c
DTITLE=Phil Collins - Love Songs [CD1)
DYEAR=2004
DGENRE=Pop
TTITLE0=Tearing And Breaking
TTITLE1=Do You Remember
TTITLE2=One More Night
TTITLE3=Against All Odds
TTITLE4=Can't Turn Back The Years
TTITLE5=Groovy Kind Of Love
TTITLE6=Everyday
TTITLE7=Don't Let Him Steal Your Heart Away
TTITLE8=Please Come Out Tonight
TTITLE9=This Must Be Love
TTITLE10=lt's In Your Eyes
TTITLE11=Can't Stop Loving You
EXTD=EMI 7 24386 68042 6\nwww.philcollins.co.uk YEAR: 2004
EXTT0=
EXTT1=
EXTT2=
EXTT3=
EXTT4=
EXTT5=
EXTT6=
EXTT7=
EXTT8=
EXTT9=
EXTT10=
EXTT11=
PLAYORDER=
